<svg xmlns="http://www.w3.org/2000/svg" style="display:none;">
  <!-- SeventhSence -->
  <symbol id="foodies404" viewBox="0 0 3303 2235">
    <rect style="fill:var(--bg)" width="3302.88" height="2234.68" fill="#050505" fill-opacity="0"/>
        <path style="fill:var(--text)" d="M1349.44 87H1450.06L1521.33 96.5918L1554.88 110.98V149.347L1471.02 628.939L1437.48 815.98H1517.14L1538.1 825.571L1542.3 839.959V887.918L1525.53 964.653L1500.37 1007.82L1491.99 1012.61L1412.33 1017.41L1403.94 1022.2L1378.79 1146.9L1362.02 1223.63L1353.63 1242.82L1328.48 1257.2L1307.52 1262H1202.7L1169.16 1247.61L1156.59 1233.22L1177.55 1108.53L1194.32 1017.41L791.838 1012.61L775.068 993.429L770.875 974.245L779.26 897.51L804.415 796.796L825.378 748.837L1208.38 206L1261.4 115.776L1299.13 96.5918L1349.44 87Z" fill="#E8E8E8"/>
        <path style="fill:var(--plate-r)" d="M2018.88 611H2108.48L2164.48 615.8L2215.67 623.8L2270.08 636.6L2311.67 649.4L2354.88 665.4L2407.67 691L2436.48 707L2470.08 729.4L2487.67 742.2L2505.28 756.6L2524.47 774.2L2540.47 788.6L2554.88 804.6L2569.28 822.2L2585.28 844.6L2601.28 870.2L2620.47 910.2L2633.28 948.6L2639.68 979L2642.88 1009.4V1047.8L2638.08 1086.2L2639.68 1105.4L2642.88 1142.2V1169.4L2639.68 1206.2L2638.08 1223.8L2642.88 1265.4V1297.4L2638.08 1339L2630.08 1372.6L2617.28 1407.8L2596.47 1447.8L2580.47 1471.8L2564.47 1492.6L2550.08 1508.6L2538.88 1521.4L2521.28 1539L2508.48 1550.2L2482.88 1571L2452.48 1591.8L2420.48 1611L2383.67 1630.2L2356.48 1643L2319.67 1657.4L2273.28 1671.8L2226.88 1683L2182.08 1691L2142.08 1695.8L2094.08 1699H2039.67L1991.68 1695.8L1950.08 1691L1897.27 1681.4L1858.88 1671.8L1801.27 1652.6L1762.88 1636.6L1729.28 1620.6L1695.68 1601.4L1657.28 1575.8L1634.88 1558.2L1610.88 1537.4L1582.08 1508.6L1567.68 1491L1551.67 1470.2L1537.28 1447.8L1527.67 1431.8L1511.68 1396.6L1500.48 1363L1494.08 1332.6L1490.88 1308.6V1259L1494.08 1230.2V1207.8L1490.88 1180.6V1132.6L1494.08 1102.2V1079.8L1490.88 1052.6V1004.6L1495.68 966.2L1506.88 926.2L1522.88 887.8L1538.88 859L1551.67 839.8L1566.08 820.6L1594.88 787H1598.08L1601.28 780.6L1622.07 761.4L1649.28 739L1684.48 715L1705.28 702.2L1743.68 681.4L1778.88 665.4L1825.27 647.8L1874.88 633.4L1924.48 622.2L1980.48 614.2L2018.88 611ZM2038.08 675L1991.68 678.2L1942.08 684.6L1895.68 694.2L1860.48 703.8L1817.27 718.2L1780.48 734.2L1754.88 747L1726.07 763L1692.48 785.4L1665.28 807.8L1652.48 819L1630.07 841.4L1615.68 859L1599.68 881.4L1583.68 908.6L1570.88 937.4L1562.88 961.4L1556.47 993.4L1554.88 1007.8V1041.4L1558.08 1068.6L1566.08 1102.2L1577.28 1131L1594.88 1164.6L1614.08 1191.8L1633.28 1214.2L1663.68 1244.6L1686.07 1262.2L1710.07 1279.8L1743.68 1300.6L1785.27 1321.4L1828.48 1339L1868.48 1351.8L1921.27 1364.6L1969.27 1372.6L2017.28 1377.4L2078.08 1379L2135.67 1375.8L2185.28 1369.4L2226.88 1361.4L2270.08 1350.2L2313.28 1335.8L2354.88 1318.2L2386.88 1302.2L2418.88 1283L2446.08 1263.8L2463.67 1249.4L2479.67 1235L2490.88 1225.4L2502.08 1212.6L2516.47 1196.6L2535.68 1169.4L2550.08 1143.8L2561.28 1119.8L2570.88 1091L2577.28 1057.4L2578.88 1036.6V1020.6L2575.68 987L2567.68 953.4L2556.47 923L2538.88 889.4L2519.68 862.2L2500.48 839.8L2492.48 830.2H2489.28V827L2476.48 815.8L2458.88 799.8L2426.88 775.8L2398.08 758.2L2362.88 739L2322.88 721.4L2266.88 702.2L2222.08 691L2178.88 683L2121.28 676.6L2087.67 675H2038.08Z" fill="#2F2F37"/>
        <path style="fill:var(--text)" d="M3097.44 0H3198.06L3269.33 9.59184L3302.88 23.9796V62.3469L3174.38 728.98H3185.48H3265.14L3286.1 738.571L3290.3 752.959V800.918L3273.53 877.653L3248.37 920.816L3239.99 925.612L3160.33 930.408L3151.94 935.204L3110.02 1136.63L3101.63 1155.82L3076.48 1170.2L3055.52 1175H2950.7L2917.16 1160.61L2904.59 1146.22L2942.32 930.408L2539.84 925.612L2523.07 906.429L2518.88 887.245L2527.26 810.51L2552.42 709.796L2573.38 661.837L2980.05 67.1429L3009.4 28.7755L3047.13 9.59184L3097.44 0Z" fill="#E8E8E8"/>
        <path style="fill:var(--bg)" d="M1311.68 313H1315.88L1311.68 361L1282.31 533.8L1240.36 778.6L1227.78 817H971.875L988.655 788.2L1022.22 740.2L1114.51 605.8L1169.05 529L1219.39 452.2L1273.92 370.6L1303.29 332.2L1311.68 313Z" fill="#050505" fill-opacity="1"/>
        <path style="fill:var(--bg)" d="M3059.68 226H3063.87L3059.68 274L3030.31 446.8L2988.36 691.6L2975.78 730H2719.88L2736.66 701.2L2770.22 653.2L2862.51 518.8L2917.05 442L2967.39 365.2L3021.92 283.6L3051.29 245.2L3059.68 226Z" fill="#050505" fill-opacity="1"/>
        <path style="fill:var(--l-bg)" d="M2057.28 817.4L2102.08 819L2143.68 823.8L2182.08 831.8L2220.48 843L2258.88 859L2289.28 875L2316.48 894.2L2334.08 908.6L2356.48 931L2375.68 956.6L2388.48 980.6L2399.68 1014.2L2402.88 1031.8V1070.2L2396.48 1099L2386.88 1124.6L2374.08 1147L2359.68 1166.2L2345.28 1182.2L2334.08 1193.4L2311.68 1211L2287.68 1227L2258.88 1243L2218.88 1259L2188.48 1268.6L2142.08 1278.2L2100.48 1283H2031.68L1988.48 1278.2L1950.08 1270.2L1908.48 1257.4L1878.08 1244.6L1852.48 1231.8L1825.28 1214.2L1802.88 1196.6L1774.08 1167.8L1758.08 1145.4L1746.88 1126.2L1737.28 1100.6L1732.48 1083L1729.28 1054.2L1730.88 1028.6L1738.88 995L1753.28 964.6L1767.68 943.8L1782.08 926.2L1804.48 903.8L1830.08 884.6L1854.08 870.2L1884.48 854.2L1922.88 839.8L1956.48 830.2L1986.88 823.8L2026.88 819L2057.28 817.4Z" fill="#514843"/>
        <path style="fill:var(--plate-r)" d="M1729 1041L2371.5 952L2383.5 914.5L2399.5 937.5L2415.5 964.5L2430 1002L2434.6 1028.2V1071.4L2428.2 1103.4L2421.8 1122.6L2410.6 1146.6L2396.2 1170.6L2381.8 1188.2L2362.6 1209L2345 1225L2316.2 1245.8L2292.2 1260.2L2266.6 1273L2237.8 1285.8L2197.8 1298.6L2156.2 1308.2L2106.6 1314.6L2061.8 1316.2L2025 1314.6L1985 1309.8L1946.6 1301.8L1913 1292.2L1879.4 1279.4L1839.4 1260.2L1809 1241L1786.6 1223.4L1767.4 1205.8L1753 1191.4L1732.2 1164.2L1717.8 1138.6L1708.2 1116.2L1700.2 1085.8L1697 1063.4V1041L1700.2 1013.8L1703 999.5L1729 1041ZM1729 1041V1052.2L1732.2 1081L1740.2 1108.2L1748.2 1125.8L1761 1148.2L1777 1169L1805.8 1197.8L1831.4 1217L1855.4 1231.4L1881 1244.2L1913 1257L1949.8 1268.2L1988.2 1276.2L2031.4 1281H2100.2L2141.8 1276.2L2188.2 1266.6L2236.2 1250.6L2261.8 1239.4L2290.6 1223.4L2317.8 1204.2L2340.2 1185L2356.2 1169L2373.8 1145L2386.6 1122.6L2397.8 1092.2L2402.6 1068.2L2407 1045.5L2396 1003L2371.5 952L1729 1041Z" fill="#050505" fill-opacity="0.9"/>
        <path style="fill:var(--plate-bg)" d="M1569.28 1367.8L1575.68 1371L1593.28 1390.2V1393.4L1599.68 1396.6L1622.08 1419L1644.48 1436.6L1665.28 1452.6L1692.48 1470.2L1726.08 1489.4L1761.28 1507L1804.48 1524.6L1852.48 1540.6L1903.68 1553.4L1961.28 1563L2009.28 1567.8L2039.68 1569.4H2092.48L2143.68 1566.2L2193.28 1559.8L2234.88 1551.8L2279.68 1540.6L2337.28 1521.4L2378.88 1503.8L2414.08 1486.2L2454.08 1462.2L2482.88 1441.4L2508.48 1420.6L2534.08 1396.6L2546.88 1383.8L2558.08 1369.4H2561.28L2559.68 1379L2546.88 1404.6L2534.08 1427L2514.88 1452.6L2498.88 1470.2L2487.68 1483L2481.28 1489.4H2478.08V1492.6L2442.88 1521.4L2412.48 1542.2L2382.08 1559.8L2343.68 1579L2311.68 1591.8L2263.68 1607.8L2225.28 1617.4L2174.08 1627L2134.08 1631.8L2114.88 1633.4L2062.08 1635L2015.68 1633.4L1969.28 1628.6L1930.88 1622.2L1886.08 1612.6L1842.88 1599.8L1804.48 1585.4L1766.08 1567.8L1735.68 1551.8L1705.28 1532.6L1678.08 1511.8L1655.68 1492.6L1630.08 1467L1615.68 1449.4L1602.88 1431.8L1590.08 1411L1572.48 1374.2L1569.28 1367.8Z" fill="#514843"/>
        <path style="fill:var(--plate-bg)" d="M1569.28 1239.8L1575.68 1243L1594.88 1263.8L1622.08 1291L1644.48 1308.6L1665.28 1324.6L1692.48 1342.2L1726.08 1361.4L1761.28 1379L1804.48 1396.6L1852.48 1412.6L1903.68 1425.4L1961.28 1435L2009.28 1439.8L2039.68 1441.4H2092.48L2143.68 1438.2L2193.28 1431.8L2234.88 1423.8L2279.68 1412.6L2337.28 1393.4L2378.88 1375.8L2414.08 1358.2L2441.28 1342.2L2460.48 1329.4L2482.88 1313.4L2508.48 1292.6L2534.08 1268.6L2546.88 1255.8L2558.08 1243L2561.28 1241.4L2559.68 1249.4L2550.08 1270.2L2535.68 1295.8L2516.48 1323L2498.88 1342.2L2487.68 1355L2481.28 1361.4H2478.08V1364.6L2460.48 1379L2441.28 1395L2422.08 1407.8L2396.48 1423.8L2364.48 1441.4L2316.48 1462.2L2263.68 1479.8L2225.28 1489.4L2174.08 1499L2134.08 1503.8L2114.88 1505.4L2060.48 1507L2015.68 1505.4L1969.28 1500.6L1929.28 1494.2L1881.28 1483L1838.08 1470.2L1804.48 1457.4L1766.08 1439.8L1735.68 1423.8L1705.28 1404.6L1678.08 1383.8L1655.68 1364.6L1628.48 1337.4L1614.08 1319.8L1591.68 1286.2L1574.08 1251L1569.28 1239.8Z" fill="#5B5B5B"/>
        <path style="fill:var(--text)" d="M1148.2 1651V1340.8H1190.88L1370.84 1573.56H1359.4V1340.8H1412.2V1651H1369.52L1190 1418.24H1201V1651H1148.2ZM1576.26 1655.4C1553.38 1655.4 1533.58 1650.71 1516.86 1641.32C1500.14 1631.93 1487.09 1618.59 1477.7 1601.28C1468.61 1583.97 1464.06 1563.44 1464.06 1539.68C1464.06 1515.92 1468.61 1495.53 1477.7 1478.52C1487.09 1461.21 1500.14 1447.87 1516.86 1438.48C1533.58 1429.09 1553.38 1424.4 1576.26 1424.4C1599.14 1424.4 1618.94 1429.09 1635.66 1438.48C1652.68 1447.87 1665.73 1461.21 1674.82 1478.52C1684.21 1495.53 1688.9 1515.92 1688.9 1539.68C1688.9 1563.44 1684.21 1583.97 1674.82 1601.28C1665.73 1618.59 1652.68 1631.93 1635.66 1641.32C1618.94 1650.71 1599.14 1655.4 1576.26 1655.4ZM1576.26 1613.16C1593.57 1613.16 1607.36 1607.15 1617.62 1595.12C1627.89 1582.8 1633.02 1564.32 1633.02 1539.68C1633.02 1515.04 1627.89 1496.71 1617.62 1484.68C1607.36 1472.65 1593.57 1466.64 1576.26 1466.64C1558.96 1466.64 1545.17 1472.65 1534.9 1484.68C1524.64 1496.71 1519.5 1515.04 1519.5 1539.68C1519.5 1564.32 1524.64 1582.8 1534.9 1595.12C1545.17 1607.15 1558.96 1613.16 1576.26 1613.16ZM1829.23 1655.4C1802.83 1655.4 1782.88 1648.51 1769.39 1634.72C1755.89 1620.93 1749.15 1600.25 1749.15 1572.68V1470.16H1706.47V1428.8H1749.15V1372.04L1804.15 1357.96V1428.8H1863.55V1470.16H1804.15V1569.16C1804.15 1584.41 1807.08 1595.12 1812.95 1601.28C1818.81 1607.44 1826.88 1610.52 1837.15 1610.52C1842.72 1610.52 1847.41 1610.08 1851.23 1609.2C1855.33 1608.32 1859.29 1607.15 1863.11 1605.68V1649.24C1858.12 1651.29 1852.55 1652.76 1846.39 1653.64C1840.52 1654.81 1834.8 1655.4 1829.23 1655.4ZM2026.05 1651V1340.8H2230.65V1385.24H2082.81V1473.24H2220.53V1517.68H2082.81V1651H2026.05ZM2366.03 1655.4C2343.15 1655.4 2323.35 1650.71 2306.63 1641.32C2289.91 1631.93 2276.86 1618.59 2267.47 1601.28C2258.38 1583.97 2253.83 1563.44 2253.83 1539.68C2253.83 1515.92 2258.38 1495.53 2267.47 1478.52C2276.86 1461.21 2289.91 1447.87 2306.63 1438.48C2323.35 1429.09 2343.15 1424.4 2366.03 1424.4C2388.91 1424.4 2408.71 1429.09 2425.43 1438.48C2442.44 1447.87 2455.5 1461.21 2464.59 1478.52C2473.98 1495.53 2478.67 1515.92 2478.67 1539.68C2478.67 1563.44 2473.98 1583.97 2464.59 1601.28C2455.5 1618.59 2442.44 1631.93 2425.43 1641.32C2408.71 1650.71 2388.91 1655.4 2366.03 1655.4ZM2366.03 1613.16C2383.34 1613.16 2397.12 1607.15 2407.39 1595.12C2417.66 1582.8 2422.79 1564.32 2422.79 1539.68C2422.79 1515.04 2417.66 1496.71 2407.39 1484.68C2397.12 1472.65 2383.34 1466.64 2366.03 1466.64C2348.72 1466.64 2334.94 1472.65 2324.67 1484.68C2314.4 1496.71 2309.27 1515.04 2309.27 1539.68C2309.27 1564.32 2314.4 1582.8 2324.67 1595.12C2334.94 1607.15 2348.72 1613.16 2366.03 1613.16ZM2606.18 1655.4C2578.9 1655.4 2558.51 1647.92 2545.02 1632.96C2531.53 1618 2524.78 1595.12 2524.78 1564.32V1428.8H2579.78V1563.88C2579.78 1580.31 2583.15 1592.48 2589.9 1600.4C2596.65 1608.03 2606.91 1611.84 2620.7 1611.84C2636.25 1611.84 2648.86 1606.56 2658.54 1596C2668.51 1585.44 2673.5 1571.51 2673.5 1554.2V1428.8H2728.5V1651H2674.82V1605.68H2680.98C2674.53 1621.52 2664.7 1633.84 2651.5 1642.64C2638.59 1651.15 2623.49 1655.4 2606.18 1655.4ZM2788.21 1651V1484.24C2788.21 1475.15 2787.92 1465.91 2787.33 1456.52C2786.74 1447.13 2785.86 1437.89 2784.69 1428.8H2837.93L2842.33 1472.8H2837.05C2844.09 1457.25 2854.5 1445.37 2868.29 1437.16C2882.08 1428.65 2898.06 1424.4 2916.25 1424.4C2942.36 1424.4 2962.01 1431.73 2975.21 1446.4C2988.41 1461.07 2995.01 1483.95 2995.01 1515.04V1651H2940.01V1517.68C2940.01 1499.79 2936.49 1487.03 2929.45 1479.4C2922.7 1471.48 2912.44 1467.52 2898.65 1467.52C2881.64 1467.52 2868.14 1472.8 2858.17 1483.36C2848.2 1493.92 2843.21 1508 2843.21 1525.6V1651H2788.21ZM3139.57 1655.4C3120.21 1655.4 3103.05 1650.85 3088.09 1641.76C3073.42 1632.37 3061.98 1619.03 3053.77 1601.72C3045.55 1584.41 3041.45 1563.73 3041.45 1539.68C3041.45 1515.63 3045.55 1495.09 3053.77 1478.08C3061.98 1460.77 3073.42 1447.57 3088.09 1438.48C3103.05 1429.09 3120.21 1424.4 3139.57 1424.4C3158.05 1424.4 3174.33 1428.95 3188.41 1438.04C3202.78 1446.84 3212.31 1458.87 3217.01 1474.12H3211.29V1327.16H3266.29V1651H3212.17V1603.92H3217.45C3212.75 1619.76 3203.22 1632.37 3188.85 1641.76C3174.77 1650.85 3158.34 1655.4 3139.57 1655.4ZM3154.97 1613.16C3172.27 1613.16 3186.21 1607.15 3196.77 1595.12C3207.33 1582.8 3212.61 1564.32 3212.61 1539.68C3212.61 1515.04 3207.33 1496.71 3196.77 1484.68C3186.21 1472.65 3172.27 1466.64 3154.97 1466.64C3137.66 1466.64 3123.58 1472.65 3112.73 1484.68C3102.17 1496.71 3096.89 1515.04 3096.89 1539.68C3096.89 1564.32 3102.17 1582.8 3112.73 1595.12C3123.58 1607.15 3137.66 1613.16 3154.97 1613.16Z" fill="#E8E8E8"/>
        <path style="fill:var(--box-bg)" d="M448.913 1097.34L453.339 1100.02L471.441 1114.89L477.927 1120.03L481.395 1126.3L491.156 1124.84L505.998 1124.73L519.482 1124.05L541.066 1123.61L627.402 1121.82L668.205 1120.72L714.744 1119.65L737.335 1118.83L793.987 1117.26L828.048 1116.5L903.92 1114.27L948.094 1113L1048.92 1110.16L1071.51 1109.34L1080.97 1110.15L1078.35 1115.44L1068.12 1131.09L1058.25 1147.7L1050.34 1160.34L1041.13 1175.62L1033.22 1188.26L1026.32 1200.53L1019.72 1210.52L1010.5 1225.8L998.969 1244.1L989.097 1260.71L981.189 1273.35L969 1292.97L958.473 1310.89L950.565 1323.53L940.692 1340.14L930.468 1355.79L924.222 1366.74L900.499 1404.66L891.282 1419.94L881.058 1435.6L870.53 1453.52L860.306 1469.18L851.088 1484.46L843.181 1497.1L833.963 1512.39L826.056 1525.03L814.522 1543.32L804.649 1559.93L797.396 1571.25L785.862 1589.55L777.955 1602.19L765.766 1621.81L761.485 1628.79L760.223 1634.65L726.912 1640.52L650.578 1656.94L558.093 1676.12L479.394 1692.34L290.045 1731.22L268.86 1735.84L266.799 1733.37L270.681 1722.22L275.218 1709.75L282.678 1689.72L288.828 1672.34L299.211 1644.76L305.361 1627.38L309.897 1614.91L315.089 1601.12L322.549 1581.09L328.699 1563.71L336.814 1542.36L342.964 1524.98L350.424 1504.95L354.961 1492.48L361.111 1475.1L368.57 1455.08L374.72 1437.69L382.835 1416.35L388.33 1400.29L395.79 1380.26L402.595 1361.56L408.745 1344.17L416.205 1324.15L422.355 1306.77L429.815 1286.74L435.965 1269.36L443.425 1249.33L449.224 1231L453.409 1217.58L458.856 1198.3L462.386 1186.21L464.462 1167.1L463.918 1153.28L462.016 1138.88L457.35 1120.11L448.913 1097.34Z" fill="#E8E8E8"/>
        <path style="fill:var(--box-r)" d="M189.061 1798.33L194.442 1797.42L221.142 1801.54L246.836 1806.03L266.445 1809.55L313.106 1818.13L343.878 1823.98L361.124 1827.3L421.662 1839.36L514.68 1858.8L534.641 1863.27L549.524 1866.38L574.563 1872.19L594.524 1876.66L623.284 1883.25L648.323 1889.07L670.999 1894.68L692.318 1899.72L709.915 1903.98L732.591 1909.59L750.189 1913.85L770.15 1918.32L775.228 1919.67L775.324 1926.1L772.945 1947.47L770.056 1979.81L767.87 2014.05L766.194 2037.31L764.87 2061.53L764.359 2072.5L758.627 2072.47L757.924 2070.57L753.197 2070.17L735.551 2062.69L725.044 2059.03L707.75 2052.5L693.521 2048.07L670.798 2039.24L660.29 2035.59L647.068 2030.78L636.56 2027.13L623.338 2022.33L609.11 2017.9L587.743 2009.64L577.236 2005.99L564.013 2001.18L549.785 1996.75L531.134 1989.65L520.626 1985.99L502.326 1979.84L485.031 1973.31L470.803 1968.87L450.794 1961.19L440.286 1957.54L421.986 1951.38L406.049 1945.43L395.542 1941.77L377.241 1935.62L361.304 1929.66L350.797 1926.01L332.496 1919.85L316.559 1913.9L306.052 1910.24L292.83 1905.44L278.601 1901.01L259.95 1893.9L245.721 1889.47L229.784 1883.52L219.277 1879.86L206.055 1875.06L191.826 1870.63L191.331 1860.03L189.541 1830.5L188.95 1813.47L189.061 1798.33Z" fill="#E8E8E8"/>
        <path style="fill:var(--box-bg)" d="M444.573 1824.15L485.251 1813.4L555.128 1791.83L605.874 1777.35L681.792 1753.54L733.545 1738.69L793.001 1719.9L798.74 1719.94L811.276 1722.87L835.644 1726.82L859.005 1731.14L879.999 1735.26L909.451 1740.58L1041.16 1765.33L1070.61 1770.64L1094.98 1774.59L1145.73 1781.75L1156.55 1783.15L1157.25 1785.05L1091.46 1808.35L1034.37 1827.35L921.849 1863.64L872.462 1878.7L817.689 1894.67L785.771 1904.33L777.363 1906.37L760.749 1901.71L740.409 1896.26L692.278 1883.81L669.572 1878.16L648.225 1873.09L625.518 1867.44L604.171 1862.37L580.458 1857.09L557.752 1851.44L546.575 1849.09L511.685 1841.47L491.698 1836.98L443.265 1826.8L444.573 1824.15Z" fill="#E8E8E8"/>
        <path style="fill:var(--box-r)" d="M789.046 1921.51L817.894 1912.97L867.55 1898.87L1002.7 1856.3L1067.74 1834.35L1178.67 1794.31L1270.81 1759.09L1312.68 1742.5L1361.9 1721.03L1373.96 1716.56L1373.7 1722.03L1369.34 1747.29L1366.34 1773.13L1361.25 1818.01L1359.81 1835.73L1314.88 1850.24L1263.26 1868.29L1107.44 1926.04L1052.5 1947.48L986.193 1975.27L870.324 2023.59L801.704 2054.39L787.63 2059.61L786.184 2052.62L787.222 2030.74L788.214 2005.65L788.292 1987.35L789.24 1959.06L788.831 1930.19L789.046 1921.51Z" fill="#E8E8E8"/>
        <path style="fill:var(--box-r)" d="M261.789 1745.78L272.208 1743L314.587 1733.78L373.123 1721.81L420.889 1711.67L475.046 1700.25L588.746 1676.48L687.649 1656.04L719.61 1649.59L754.591 1642.03L762.342 1641.32L771.903 1648.58L775.627 1649.36L776.331 1651.27L781.062 1651.67L800.64 1651.98L803.71 1654.09L798.771 1684.01L795.647 1700.3L794.79 1710.34L791.115 1712.78L784.723 1714.07L751.805 1724.11L694.677 1739.88L630.855 1759.21L566.68 1777.59L501.851 1797.29L419.205 1821.44L330.175 1803.64L256.394 1789.93L246.58 1788.16L247.185 1783.61L253.681 1767.16L257.559 1756L261.789 1745.78Z" fill="#E8E8E8"/>
        <path style="fill:var(--box-r)" d="M1086.04 1110.78L1093.1 1108.16L1121.45 1107.37L1122.81 1107.95L1125.28 1114.6L1126.81 1149.67L1125.49 1173.92L1121.24 1205.74L1108.33 1223.48L1096.79 1241.8L1080.95 1267.11L1071.73 1282.41L1061.49 1298.09L1049.29 1317.73L1039.71 1332.08L1019.24 1363.43L1006.69 1382.12L994.791 1399.49L980.574 1419.88L967.013 1438.95L951.789 1459.71L939.54 1476.13L902.438 1524.44L889.181 1541.24L874.916 1558.4L859.996 1576.89L840.086 1600.47L822.494 1621.03L811.556 1634.81L808.885 1636.88L787.726 1644.72L774.483 1639.91L768.341 1635.7L764.615 1634.92L764.214 1630.75L769.811 1621.12L794.214 1581.83L803.441 1566.53L811.357 1553.88L820.584 1538.58L832.786 1518.93L842.013 1503.63L849.273 1492.3L858.5 1477L865.76 1465.67L877.962 1446.03L885.877 1433.37L895.104 1418.07L902.365 1406.74L911.592 1391.44L918.852 1380.11L928.079 1364.81L934.683 1354.8L943.91 1339.5L951.171 1328.17L963.372 1308.53L972.599 1293.23L982.834 1277.55L992.716 1260.93L1002.95 1245.26L1012.83 1228.63L1023.07 1212.96L1032.95 1196.34L1040.21 1185L1049.44 1169.7L1059.67 1154.03L1068.24 1140.05L1076.16 1127.4L1085.39 1112.1L1086.04 1110.78Z" fill="#E8E8E8"/>
        <path style="fill:var(--box-r)" d="M812.721 1649.32L822.125 1646.91L835.65 1649.46L963.269 1660.46L1035.88 1668.1L1062.23 1671.29L1089.58 1674.1L1111.2 1676.89L1137.55 1680.08L1165.26 1683.84L1207.14 1688.83L1236.2 1693.18L1249.38 1694.77L1278.44 1699.11L1312.23 1703.87L1344.66 1708.04L1353.46 1710.18L1353.82 1711.13L1314.94 1726.61L1163.07 1782.9L1148.84 1778.45L1125.16 1773.2L1111.28 1769.7L1092.68 1765.8L1065.63 1760.71L1044.66 1756.61L994.275 1747.21L967.224 1742.12L942.535 1737.24L913.12 1731.94L892.152 1727.84L870.179 1724.11L845.491 1719.22L825.881 1715.69L807.628 1712.74L802.55 1711.39L802.802 1705.89L806.176 1684.13L808.292 1668.23L811.413 1651.96L812.721 1649.32Z" fill="#E8E8E8"/>
        <path style="fill:var(--box-r)" d="M433.068 1094.69L434.075 1094.31L437.902 1101.55L441.426 1111.05L446.862 1135L447.867 1156.25L447.463 1173.71L445.044 1191.91L444.287 1208.41L436.128 1226.57L430.94 1240.39L425.4 1253.26L419.255 1270.68L411.801 1290.75L404.699 1311.76L398.201 1328.23L392.057 1345.65L385.559 1362.12L381.681 1373.29L373.572 1394.68L366.118 1414.74L359.973 1432.16L354.785 1445.98L350.252 1458.47L335.343 1498.61L326.277 1523.6L318.822 1543.66L312.678 1561.08L302.302 1588.72L293.236 1613.71L287.091 1631.13L281.248 1646.27L275.103 1663.69L269.916 1677.51L262.461 1697.57L256.971 1713.67L250.474 1730.13L245.941 1742.63L233.651 1777.47L231.384 1783.71L225.996 1784.63L205.351 1781.47L194.172 1779.12L193.77 1774.94L198.303 1762.45L203.441 1745.4L208.276 1730.63L216.99 1704.69L221.171 1691.25L226.661 1675.15L241.167 1630.84L248.924 1608.5L253.759 1593.73L270.23 1545.45L277.986 1523.11L283.477 1507.01L298.99 1462.33L311.28 1427.5L318.734 1407.43L325.836 1386.41L331.981 1368.99L339.435 1348.93L351.725 1314.09L357.568 1298.95L363.712 1281.53L368.9 1267.71L375.398 1251.24L379.276 1240.07L386.73 1220.01L392.875 1202.59L400.682 1183.47L406.827 1166.06L413.324 1149.59L419.469 1132.17L424.657 1118.35L429.492 1103.58L433.068 1094.69Z" fill="#E8E8E8"/>
        <path style="fill:var(--box-r)" d="M456.892 1083.72L464.285 1082.06L480.126 1081.59L524.584 1078.07L537.056 1077.77L571.757 1075.7L652.625 1071.64L712.27 1068.97L754.062 1067.52L798.217 1066.27L823.161 1065.66L869.68 1064.62L902.721 1064.25L941.495 1063.91L1005.57 1063.92L1059.53 1064.44L1096.29 1064.85L1113.49 1064.95L1121.23 1064.24L1126.41 1072.04L1135.11 1089.33L1136.87 1094.07L1130.48 1095.36L1100.81 1095.56L1083.61 1095.46L1070.13 1096.13L901.254 1100.42L854.735 1101.47L836.529 1101.73L819.682 1102.58L785.635 1103.32L757.321 1104.1L733.383 1104.33L713.166 1105.35L697.325 1105.82L650.806 1106.87L632.6 1107.13L612.383 1108.15L580.7 1109.1L563.853 1109.94L548.011 1110.41L510.595 1111.32L491.384 1111.97L486.959 1109.29L473.283 1097.08L457.243 1084.67L456.892 1083.72Z" fill="#E8E8E8"/>
        <path style="fill:var(--cat)" d="M1777.7 168.18L1795.9 169.697L1815.61 177.279L1835.33 189.412L1855.04 204.578L1876.27 222.777L1902.06 248.559L1915.71 265.242L1926.32 277.374L1944.52 275.858L1983.95 271.308L2017.32 269.791H2067.36L2102.25 274.341L2128.03 277.374L2138.64 275.858L2158.36 253.109L2172.01 237.943L2197.79 212.161L2214.47 198.512L2234.19 184.862L2258.45 172.73L2267.55 169.697L2284.24 168.18L2299.4 172.73L2310.02 183.346L2322.15 206.095L2332.77 234.91L2343.38 277.374L2349.45 309.223L2354 350.17L2355.52 410.834L2378.27 465.431L2394.95 515.479L2411.63 586.758L2498.5 566V580.5L2415 599.5L2411.63 586.758L2337.32 606.474V618.606L2415 599.5L2417.7 617.09L2419.21 638.322L2508.5 628V643L2419.21 652V638.322L2335.8 648.938L2337.32 661.071L2419.21 652L2411 697.469L2506 703.5L2502.5 718.5L2406 712.033L2411 697.469L2331.25 695.952L2329.73 708.085L2406 712.033L2388.88 744.483L2372.2 768.749L2358.55 784.033L2152.29 786.948L2144.71 803.63L2134.09 817.279L2120.45 826.379L2106.8 830.929H2088.6L2074.95 827.896L2059.78 820.313L2053.72 818.796L2050.68 827.896L2038.55 844.578L2030.97 852.161L2021.87 859.744L2002.15 868.843L1990.02 871.877H1968.79L1949.07 867.327L1933.91 859.744L1918.74 846.095L1909.64 835.479L1902.06 820.313L1897.51 803.63L1895.99 785.431L1703.38 783.915L1688.22 765.716L1662.42 722.5L1657 708.085L1567.5 725.5L1571.5 740.5L1735.23 708.085L1733.72 695.952L1657 708.085L1644.24 652.533L1558 641L1560.5 626.5L1644.24 640V652.533L1727.65 662.588L1726.13 648.938L1644.24 640L1648.79 599.033L1571.5 575.033L1575.5 562.533L1650.3 586.033L1648.79 599.033L1727.65 618.606L1729.17 607.99L1650.3 586.033L1660.92 539.744L1674.57 492.73L1692.77 445.715L1706.42 412.351L1709.45 344.104L1714 304.673L1723.1 260.692L1735.23 219.744L1747.36 192.445L1757.98 178.796L1767.08 171.213L1777.7 168.18Z" fill="#E8E8E8"/>
        <path style="fill:var(--pizza-bg)" d="M1654.85 794.531H1883.86V800.597L1889.92 821.829L1900.54 843.062L1915.71 859.744L1932.39 870.36L1950.59 877.943L1965.75 880.976H1991.54L2014.28 874.91L2030.97 865.81L2046.13 853.678L2056.75 840.028L2061.3 833.962L2074.95 838.512L2081.01 840.028H2111.35L2128.03 833.962L2141.68 824.863L2149.26 817.28L2156.84 808.18L2161.5 796.047H2187.18H2399.31L2399.5 823.346L2391.92 876.426L2385.85 905.242L2379.78 927.99L2367.65 962.872L2354 993.204L2340.35 1018.99L2325.19 1041.73L2310.02 1061.45L2293.34 1079.65L2276.65 1096.33L2260.5 1111L2241.77 1122.11L2222.06 1134.25L2197.79 1146.38L2165.94 1158.51L2138.64 1167.61L2090.11 1175.19L2055.23 1178.23H1994.57L1950.59 1173.68L1906.61 1164.58L1865.66 1150.93L1841.39 1140.31L1811.06 1122.11L1794.38 1109.98L1770.11 1084.2L1754.95 1072.07L1744.33 1062.97L1726.13 1038.7L1709.45 1011.4L1697.32 988.654L1691.25 976.521L1673.05 921.924L1665.47 890.076L1657.89 846.095L1654.85 817.28V794.531Z" fill="#E8E8E8"/>
        <path style="fill:var(--cat)" d="M2329.73 1079.65H2343.38L2363.1 1085.72L2372.2 1091.78L2382.82 1102.4L2391.91 1120.6L2394.95 1132.73V1164.58L2390.4 1187.33L2379.78 1219.18L2366.13 1247.99L2352.48 1272.26L2347.93 1281.36L2326.7 1305.62L2314.57 1314.72L2310.02 1319.27L2294.85 1322.3L2279.69 1323.82L2264.52 1319.27L2250.87 1310.17L2241.77 1298.04L2237.22 1285.91V1255.57L2247.84 1210.08L2261.49 1155.48L2270.59 1132.73L2279.69 1114.53L2297.89 1094.82L2310.02 1085.72L2322.15 1081.17L2329.73 1079.65Z" fill="#E8E8E8"/>
        <path style="fill:var(--cat)" d="M1717.03 1079.65H1730.68L1745.85 1084.2L1762.53 1094.82L1776.18 1109.98L1789.83 1134.25L1797.41 1152.45L1821.68 1249.51L1823.19 1258.61V1284.39L1817.13 1301.07L1808.03 1311.69L1792.86 1320.79L1782.25 1323.82H1771.63L1756.46 1319.27L1742.81 1311.69L1727.65 1298.04L1712.48 1281.36L1694.28 1249.51L1682.15 1223.73L1671.54 1196.43L1665.47 1172.16L1663.95 1160.03V1138.8L1668.5 1117.56L1677.6 1100.88L1691.25 1088.75L1703.38 1082.68L1717.03 1079.65Z" fill="#E8E8E8"/>
        <path style="fill:var(--cat)" d="M2532.96 1038.7L2561.77 1034.15H2584.52L2602.72 1037.18L2620.92 1044.77L2631.54 1053.87L2639.12 1066L2642.15 1078.13V1093.3L2636.09 1109.98L2625.47 1122.11L2617.89 1128.18L2610.3 1131.21L2601.2 1132.73H2555.71L2534.47 1135.76L2510.21 1143.35L2484.43 1155.48L2459.5 1172.5L2454.1 1176.71L2437.41 1185.81L2408.6 1202.49L2401.01 1205.53L2402.53 1194.91L2407.08 1173.68L2408.6 1160.03V1126.66L2422.25 1111.5L2449.55 1084.2L2469.26 1069.03L2492.01 1055.38L2520.83 1043.25L2528.41 1040.22L2532.96 1038.7Z" fill="#E8E8E8"/>
        <path style="fill:var(--pizza-bg)" d="M2235.71 1187.33H2238.74L2237.22 1199.46L2228.12 1229.79L2194.76 1241.92L2156.84 1252.54L2108.31 1261.64L2055.23 1266.19H1988.5L1927.84 1260.12L1883.86 1251.02L1845.94 1240.41L1833.81 1235.86L1827.74 1220.69L1821.68 1194.91V1188.84L1835.33 1193.39L1867.18 1205.53L1900.54 1214.63L1938.45 1222.21L1977.89 1226.76L2003.67 1228.28H2046.13L2093.15 1225.24L2143.19 1217.66L2179.59 1208.56L2211.44 1197.94L2235.71 1187.33Z" fill="#E8E8E8"/>
        <path style="fill:var(--cat)" d="M2452.09 830.929L2471.81 832.446L2485.46 840.028L2496.07 852.161L2503.66 867.327L2508.21 885.526V908.275L2503.66 927.991L2496.07 943.156L2485.46 956.806L2467.26 968.938H2446.03L2427.83 962.872L2417.21 953.773L2406.6 932.54L2405.08 923.441L2442.99 929.507V915.858L2403.56 908.275L2402.53 902L2406.6 876.427L2408.11 873.393L2449.06 876.427L2450.58 864.294L2414.18 858.228L2417.21 850.645L2426.31 840.028L2436.93 833.962L2452.09 830.929Z" fill="#E8E8E8"/>
        <path style="fill:var(--cat)" d="M1594.19 830.929H1607.84L1623.01 835.479L1635.14 844.578L1642.72 858.228L1606.32 865.81L1607.84 876.427L1646 870L1651.82 885.526L1651 909L1613.91 917.374V928L1648.79 923.441L1650.3 929.507L1644.24 946.19L1638.17 955.289L1626.04 964.389L1612.39 968.938H1591.16L1575.99 961.356L1565.37 950.739L1553.24 929.507L1548.69 912.825V882.493L1554.76 862.777L1563.86 847.611L1574.47 838.512L1586.61 832.446L1594.19 830.929Z" fill="#E8E8E8"/>
        <path style="fill:var(--pizza-bg)" d="M2252.39 1131.21L2253.91 1135.76L2243.29 1167.61L2238.74 1172.16L2202.34 1187.33L2156.84 1200.98L2109.83 1210.08L2081.01 1213.11L2058.27 1214.63H2000.63L1949.07 1210.08L1906.61 1202.49L1873.24 1193.39L1841.39 1181.26L1818.64 1172.16L1815.61 1169.13L1808.03 1141.83V1137.28L1815.61 1140.31L1830.78 1149.41L1856.56 1161.55L1885.37 1172.16L1918.74 1181.26L1962.72 1188.84L1997.6 1191.88H2049.17L2090.11 1188.84L2118.93 1184.29L2128.03 1181.26L2146.23 1178.23L2176.56 1169.13L2206.89 1157L2237.22 1141.83L2252.39 1131.21Z" fill="#E8E8E8"/>
        <path style="fill:var(--cat-eye)" d="M2208.41 521.545H2228.12L2240.26 527.611L2250.87 538.227L2259.97 556.426L2261.49 564.009V583.725L2256.94 598.891L2249.36 611.024L2238.74 620.123L2228.12 624.673H2209.92L2194.76 617.09L2184.14 604.957L2178.08 591.308L2176.56 585.242V559.46L2182.63 542.777L2191.73 530.644L2203.86 523.062L2208.41 521.545Z" fill="#050505" fill-opacity="0.9"/>
        <path style="fill:var(--cat-eye)" d="M1836.84 521.545H1855.04L1868.69 527.611L1879.31 539.744L1885.37 551.877L1888.41 564.009V579.175L1883.86 597.374L1874.76 611.024L1864.14 620.123L1853.53 624.673H1835.33L1820.16 617.09L1811.06 606.474L1805 594.341L1801.96 579.175L1803.48 559.46L1809.54 544.294L1818.64 532.161L1826.23 526.095L1836.84 521.545Z" fill="#050505" fill-opacity="0.9"/>
        <path style="fill:var(--cat-n)" d="M2014.28 589.792H2047.65L2058.27 592.825L2064.33 600.408L2062.82 611.024L2050.68 627.706L2040.07 639.839V664.104L2044.62 674.72L2053.72 682.303L2058.27 683.82H2074.95L2087.08 676.237L2091.63 668.654L2096.18 651.972L2102.25 650.455L2106.8 655.005V668.654L2099.21 683.82L2088.6 692.919L2077.98 697.469L2061.3 698.986L2043.1 692.919L2034 683.82L2027.93 686.853L2020.35 692.919L2011.25 697.469L1994.57 698.986L1979.4 694.436L1967.27 685.337L1959.69 673.204L1958.17 668.654V653.488L1961.2 650.455L1968.79 651.972L1974.85 671.687L1979.4 679.27L1991.54 683.82H2008.22L2017.32 677.754L2023.38 670.171L2024.9 658.038V642.872L2018.83 632.256L2008.22 620.123L2000.64 606.474V597.374L2008.22 591.308L2014.28 589.792Z" fill="#050505" fill-opacity="0.9"/>
        <path style="fill:var(--cat-n)" d="M2284.24 201.545L2296.37 204.578L2305.47 212.161L2313.05 227.327V234.91H2306.99L2294.85 219.744L2285.75 215.194L2278.17 216.711L2266.04 233.393L2253.9 257.659L2241.77 284.957L2234.19 304.673L2250.87 300.123H2264.52L2270.59 306.189L2269.07 318.322L2263 328.938V335.005L2287.27 347.137L2310.02 362.303L2329.73 378.986L2334.28 383.535L2332.77 392.635L2326.7 394.152L2305.47 377.469L2290.3 366.853L2267.55 353.204L2249.36 342.588L2247.84 341.071V327.422L2253.9 312.256L2235.71 321.355L2226.61 324.389H2219.02L2215.99 321.355L2217.51 309.223L2229.64 274.341L2243.29 244.009L2256.94 219.744L2269.07 206.095L2275.14 203.062L2284.24 201.545Z" fill="#050505" fill-opacity="0.9"/>
        <path style="fill:var(--cat-n)" d="M1779.21 201.545L1792.86 204.578L1801.96 212.161L1812.58 227.327L1824.71 251.592L1836.84 280.407L1845.94 307.706L1847.46 313.772V324.389L1842.91 325.905L1832.29 321.355L1811.06 315.289L1817.13 333.488L1815.61 341.071L1808.03 347.137L1771.63 366.853L1750.4 382.019L1736.75 392.635L1729.17 391.118L1727.65 385.052L1738.27 372.919L1765.56 353.204L1800.45 335.005L1798.93 325.905L1794.38 316.806V306.189L1798.93 301.64L1805 300.123L1826.23 303.156L1829.26 304.673L1817.13 271.308L1803.48 240.976L1792.86 222.777L1783.76 215.194L1774.66 216.711L1765.56 224.294L1757.98 234.91H1751.91L1753.43 224.294L1759.5 213.678L1767.08 206.095L1779.21 201.545Z" fill="#050505" fill-opacity="0.9"/>
        <path style="fill:var(--pizza-bg)" d="M1635.5 972.5L1650.3 1008.37L1659.4 1026.57L1676.09 1056.9L1688 1074.5L1673.05 1085.72L1660.5 1100L1639.69 1062.97L1627.55 1038.7L1615.42 1008.37L1609.36 990.171L1610.87 982.588L1635.5 972.5Z" fill="#E8E8E8"/>
        <path style="fill:var(--pizza-bg)" d="M2390.4 938.607L2394.95 943.156L2404.05 959.839L2407.08 964.389L2405.56 976.521L2393.43 1006.85L2381.3 1032.64L2363.1 1062.97L2355.52 1069.03L2352.48 1067.52L2326.7 1066L2329.73 1058.42L2338.83 1046.28L2358.55 1014.44L2376.75 976.521L2387.36 946.19L2390.4 938.607Z" fill="#E8E8E8"/>
        <path style="fill:var(--pizza-bg)" d="M2420.73 976.521L2437.41 981.071L2443.48 984.104L2440.45 997.754L2425.28 1035.67L2413.15 1059.93L2397.98 1087.23L2393.43 1091.78L2388.88 1088.75L2384 1084.5L2379.78 1079.65L2373.72 1075.1L2375.23 1069.03L2388.88 1046.28L2401.01 1022.02L2411.63 999.27L2419.21 978.038L2420.73 976.521Z" fill="#E8E8E8"/>
        <path style="fill:var(--pizza-bg)" d="M1664.5 938L1676.09 973.488L1692.77 1009.89L1712.48 1043.25L1728 1064.5L1698 1069L1682.15 1040.22L1668.5 1015.95L1657.89 991.687L1650.3 968.938V961.356L1664.5 938Z" fill="#E8E8E8"/>
        <path style="fill:var(--cat-n)" d="M2308.5 1150.93H2331.25L2341.87 1160.03L2347.93 1173.68V1193.39L2341.87 1202.49L2332.77 1204.01L2322.15 1199.46L2313.05 1193.39L2293.34 1188.84L2285.75 1181.26V1170.64L2294.85 1158.51L2308.5 1150.93Z" fill="#050505" fill-opacity="0.9"/>
        <path style="fill:var(--cat-n)" d="M1735.23 1149.41H1745.85L1761.01 1155.48L1771.63 1166.09L1774.66 1172.16V1181.26L1765.56 1188.84L1742.82 1194.91L1732.2 1202.49L1724.62 1204.01L1717.03 1199.46L1712.48 1193.39L1710.97 1188.84V1176.71L1717.03 1161.55L1724.62 1153.96L1735.23 1149.41Z" fill="#050505" fill-opacity="0.9"/>
        <path style="fill:var(--cat)" d="M2219.02 1247.99H2223.57L2222.06 1279.84L2206.89 1278.32L2161.39 1269.22V1266.19L2205.37 1252.54L2219.02 1247.99Z" fill="#E8E8E8"/>
        <path style="fill:var(--cat)" d="M1836.84 1252.54L1844.43 1254.06L1882.34 1264.67L1892.96 1267.71L1891.44 1270.74L1844.43 1281.36H1838.36L1836.84 1252.54Z" fill="#E8E8E8"/>
        <path style="fill:var(--cat-n)" d="M1753.43 1109.98L1764.05 1113.01L1770.11 1120.6L1771.63 1123.63V1132.73L1767.08 1140.31L1757.98 1143.35L1750.4 1140.31L1744.33 1131.21V1117.56L1748.88 1111.5L1753.43 1109.98Z" fill="#050505" fill-opacity="0.9"/>
        <path style="fill:var(--cat-n)" d="M1683.67 1135.76H1695.8L1703.38 1143.35L1706.42 1157L1698.83 1166.09H1688.22L1680.63 1160.03L1677.6 1152.45V1143.35L1683.67 1135.76Z" fill="#050505" fill-opacity="0.9"/>
        <path style="fill:var(--cat-n)" d="M2367.65 1134.25L2378.27 1137.28L2381.3 1141.83V1155.48L2372.2 1166.09H2360.07L2354 1158.51V1149.41L2361.58 1137.28L2367.65 1134.25Z" fill="#050505" fill-opacity="0.9"/>
        <path style="fill:var(--cat-n)" d="M2337.32 1106.95H2349.45L2354 1113.01L2355.52 1122.11L2350.97 1132.73L2346.42 1137.28L2340.35 1138.8L2331.25 1135.76L2328.22 1132.73L2326.7 1123.63L2331.25 1113.01L2337.32 1106.95Z" fill="#050505" fill-opacity="0.9"/>
        <path style="fill:var(--cat-n)" d="M1710.97 1106.95H1721.58L1729.17 1114.53L1732.2 1119.08V1131.21L1723.1 1138.8L1714 1137.28L1706.42 1128.18L1704.9 1125.15V1113.01L1710.97 1106.95Z" fill="#050505" fill-opacity="0.9"/>
        <path style="fill:var(--cat-n)" d="M2296.37 1111.67H2306.99L2313.05 1116.22V1129.5L2310.02 1137.45L2305.47 1142H2293.34L2288.5 1137.17L2287.5 1130.17L2288 1125.17L2290.3 1116.22L2296.37 1111.67Z" fill="#050505" fill-opacity="0.9"/>
        <path style="fill:var(--pizza-bg)" d="M1583.57 796.047H1610.87V817.28L1582.06 816.5L1583.57 796.047Z" fill="#E8E8E8"/>
        <path style="fill:var(--cat)" d="M2015.8 603.441H2053.72L2050.68 609.507L2037.03 626.189H2030.97L2017.32 609.507L2015.8 603.441Z" fill="#E8E8E8"/>
        <path style="fill:var(--pizza-bg)" d="M1624.52 796.047L1642.72 795L1644.5 834L1624.52 820.313V796.047Z" fill="#E8E8E8"/>
        <path style="fill:var(--pizza-bg)" d="M2414.66 797.564H2431.35V820.313L2416.18 830.929H2413.15V814.246L2414.66 797.564Z" fill="#E8E8E8"/>
        <path style="fill:var(--pizza-bg)" d="M2446.51 797.564H2470.78V815.763L2469.26 817.28H2452.58L2446.51 815.763V797.564Z" fill="#E8E8E8"/>
        <ellipse style="fill:var(--sausage)" cx="1801.5" cy="919" rx="82.5" ry="85" fill="#050505" fill-opacity="0.9"/>
        <ellipse style="fill:var(--sausage)" cx="2019.5" cy="1027" rx="82.5" ry="85" fill="#050505" fill-opacity="0.9"/>
        <ellipse style="fill:var(--sausage)" cx="2252.5" cy="916" rx="82.5" ry="85" fill="#050505" fill-opacity="0.9"/>
        <path style="fill:var(--sausage-r)" d="M1816 943.5C1816 947.918 1811.3 951.5 1805.5 951.5C1799.7 951.5 1795 947.918 1795 943.5C1795 939.082 1799.7 935.5 1805.5 935.5C1811.3 935.5 1816 939.082 1816 943.5Z" fill="#E8E8E8"/>
        <path style="fill:var(--sausage-r)" d="M1781 874.455C1781 878.873 1776.3 882.455 1770.5 882.455C1764.7 882.455 1760 878.873 1760 874.455C1760 870.037 1764.7 866.455 1770.5 866.455C1776.3 866.455 1781 870.037 1781 874.455Z" fill="#E8E8E8"/>
        <path style="fill:var(--sausage-r)" d="M1810.5 901C1810.5 905.418 1805.8 909 1800 909C1794.2 909 1789.5 905.418 1789.5 901C1789.5 896.582 1794.2 893 1800 893C1805.8 893 1810.5 896.582 1810.5 901Z" fill="#E8E8E8"/>
        <path style="fill:var(--sausage-r)" d="M1753 913.455C1753 917.874 1748.3 921.455 1742.5 921.455C1736.7 921.455 1732 917.874 1732 913.455C1732 909.037 1736.7 905.455 1742.5 905.455C1748.3 905.455 1753 909.037 1753 913.455Z" fill="#E8E8E8"/>
        <path style="fill:var(--sausage-r)" d="M1864.5 909C1864.5 913.418 1859.8 917 1854 917C1848.2 917 1843.5 913.418 1843.5 909C1843.5 904.582 1848.2 901 1854 901C1859.8 901 1864.5 904.582 1864.5 909Z" fill="#E8E8E8"/>
        <path style="fill:var(--sausage-r)" d="M1837 869C1837 873.418 1832.3 877 1826.5 877C1820.7 877 1816 873.418 1816 869C1816 864.581 1820.7 861 1826.5 861C1832.3 861 1837 864.581 1837 869Z" fill="#E8E8E8"/>
        <path style="fill:var(--sausage-r)" d="M1777.5 959.5C1777.5 963.918 1772.8 967.5 1767 967.5C1761.2 967.5 1756.5 963.918 1756.5 959.5C1756.5 955.082 1761.2 951.5 1767 951.5C1772.8 951.5 1777.5 955.082 1777.5 959.5Z" fill="#E8E8E8"/>
        <path style="fill:var(--sausage-r)" d="M1847.5 965.217C1847.5 969.635 1842.8 973.217 1837 973.217C1831.2 973.217 1826.5 969.635 1826.5 965.217C1826.5 960.798 1831.2 957.217 1837 957.217C1842.8 957.217 1847.5 960.798 1847.5 965.217Z" fill="#E8E8E8"/>
        <path style="fill:var(--sausage-r)" d="M2034 1051.5C2034 1055.92 2029.3 1059.5 2023.5 1059.5C2017.7 1059.5 2013 1055.92 2013 1051.5C2013 1047.08 2017.7 1043.5 2023.5 1043.5C2029.3 1043.5 2034 1047.08 2034 1051.5Z" fill="#E8E8E8"/>
        <path style="fill:var(--sausage-r)" d="M1999 982.455C1999 986.873 1994.3 990.455 1988.5 990.455C1982.7 990.455 1978 986.873 1978 982.455C1978 978.037 1982.7 974.455 1988.5 974.455C1994.3 974.455 1999 978.037 1999 982.455Z" fill="#E8E8E8"/>
        <path style="fill:var(--sausage-r)" d="M2028.5 1009C2028.5 1013.42 2023.8 1017 2018 1017C2012.2 1017 2007.5 1013.42 2007.5 1009C2007.5 1004.58 2012.2 1001 2018 1001C2023.8 1001 2028.5 1004.58 2028.5 1009Z" fill="#E8E8E8"/>
        <path style="fill:var(--sausage-r)" d="M1971 1021.46C1971 1025.87 1966.3 1029.46 1960.5 1029.46C1954.7 1029.46 1950 1025.87 1950 1021.46C1950 1017.04 1954.7 1013.46 1960.5 1013.46C1966.3 1013.46 1971 1017.04 1971 1021.46Z" fill="#E8E8E8"/>
        <path style="fill:var(--sausage-r)" d="M2082.5 1017C2082.5 1021.42 2077.8 1025 2072 1025C2066.2 1025 2061.5 1021.42 2061.5 1017C2061.5 1012.58 2066.2 1009 2072 1009C2077.8 1009 2082.5 1012.58 2082.5 1017Z" fill="#E8E8E8"/>
        <path style="fill:var(--sausage-r)" d="M2055 977C2055 981.418 2050.3 985 2044.5 985C2038.7 985 2034 981.418 2034 977C2034 972.581 2038.7 969 2044.5 969C2050.3 969 2055 972.581 2055 977Z" fill="#E8E8E8"/>
        <path style="fill:var(--sausage-r)" d="M1995.5 1067.5C1995.5 1071.92 1990.8 1075.5 1985 1075.5C1979.2 1075.5 1974.5 1071.92 1974.5 1067.5C1974.5 1063.08 1979.2 1059.5 1985 1059.5C1990.8 1059.5 1995.5 1063.08 1995.5 1067.5Z" fill="#E8E8E8"/>
        <path style="fill:var(--sausage-r)" d="M2065.5 1073.22C2065.5 1077.63 2060.8 1081.22 2055 1081.22C2049.2 1081.22 2044.5 1077.63 2044.5 1073.22C2044.5 1068.8 2049.2 1065.22 2055 1065.22C2060.8 1065.22 2065.5 1068.8 2065.5 1073.22Z" fill="#E8E8E8"/>
        <path style="fill:var(--sausage-r)" d="M2267 940.5C2267 944.918 2262.3 948.5 2256.5 948.5C2250.7 948.5 2246 944.918 2246 940.5C2246 936.082 2250.7 932.5 2256.5 932.5C2262.3 932.5 2267 936.082 2267 940.5Z" fill="#E8E8E8"/>
        <path style="fill:var(--sausage-r)" d="M2232 871.455C2232 875.873 2227.3 879.455 2221.5 879.455C2215.7 879.455 2211 875.873 2211 871.455C2211 867.037 2215.7 863.455 2221.5 863.455C2227.3 863.455 2232 867.037 2232 871.455Z" fill="#E8E8E8"/>
        <path style="fill:var(--sausage-r)" d="M2261.5 898C2261.5 902.418 2256.8 906 2251 906C2245.2 906 2240.5 902.418 2240.5 898C2240.5 893.582 2245.2 890 2251 890C2256.8 890 2261.5 893.582 2261.5 898Z" fill="#E8E8E8"/>
        <path style="fill:var(--sausage-r)" d="M2204 910.455C2204 914.874 2199.3 918.455 2193.5 918.455C2187.7 918.455 2183 914.874 2183 910.455C2183 906.037 2187.7 902.455 2193.5 902.455C2199.3 902.455 2204 906.037 2204 910.455Z" fill="#E8E8E8"/>
        <path style="fill:var(--sausage-r)" d="M2315.5 906C2315.5 910.418 2310.8 914 2305 914C2299.2 914 2294.5 910.418 2294.5 906C2294.5 901.582 2299.2 898 2305 898C2310.8 898 2315.5 901.582 2315.5 906Z" fill="#E8E8E8"/>
        <path style="fill:var(--sausage-r)" d="M2288 866C2288 870.418 2283.3 874 2277.5 874C2271.7 874 2267 870.418 2267 866C2267 861.581 2271.7 858 2277.5 858C2283.3 858 2288 861.581 2288 866Z" fill="#E8E8E8"/>
        <path style="fill:var(--sausage-r)" d="M2228.5 956.5C2228.5 960.918 2223.8 964.5 2218 964.5C2212.2 964.5 2207.5 960.918 2207.5 956.5C2207.5 952.082 2212.2 948.5 2218 948.5C2223.8 948.5 2228.5 952.082 2228.5 956.5Z" fill="#E8E8E8"/>
        <path style="fill:var(--sausage-r)" d="M2298.5 962.217C2298.5 966.635 2293.8 970.217 2288 970.217C2282.2 970.217 2277.5 966.635 2277.5 962.217C2277.5 957.798 2282.2 954.217 2288 954.217C2293.8 954.217 2298.5 957.798 2298.5 962.217Z" fill="#E8E8E8"/>
    </symbol>
<svg width="3303" height="2235" viewBox="0 0 3303 2235" fill="none" xmlns="http://www.w3.org/2000/svg">
</svg>
